<?xml version="1.0" encoding="utf-8"?>
<!-- Generator: Adobe Illustrator 27.0.0, SVG Export Plug-In . SVG Version: 6.00 Build 0)  -->
<svg version="1.1" id="图层_1" xmlns="http://www.w3.org/2000/svg" xmlns:xlink="http://www.w3.org/1999/xlink" x="0px" y="0px"
	 viewBox="0 0 200 200" style="enable-background:new 0 0 200 200;" xml:space="preserve">
<path d="M164.9,43.7l-64.6,50.2L35.7,43.7L27.1,37l-7.9,10.2l5.6,4.3l68.6,53.4c4,3.2,9.8,3.2,13.8,0l68.7-53.4l5.6-4.3L173.4,37
	C173.5,37,164.9,43.7,164.9,43.7z" fill="currentColor"/>
<path d="M181.2,31.2H18.8c-3.5,0-6.2,2.8-6.2,6.2v125c0,3.5,2.8,6.2,6.2,6.2h162.5c3.5,0,6.2-2.8,6.2-6.2v-125
	C187.5,34,184.7,31.2,181.2,31.2z M173.4,52.9v101.8H26.6V52.9l-5.4-4.2l7.7-9.9l8.4,6.5h125.6l8.4-6.5l7.7,9.9L173.4,52.9
	L173.4,52.9z" fill="currentColor"/>
</svg>
