<?xml version="1.0" encoding="utf-8"?>
<!-- Generator: Adobe Illustrator 27.0.0, SVG Export Plug-In . SVG Version: 6.00 Build 0)  -->
<svg version="1.1" id="图层_1" xmlns="http://www.w3.org/2000/svg" xmlns:xlink="http://www.w3.org/1999/xlink" x="0px" y="0px"
	 viewBox="0 0 200 200" style="enable-background:new 0 0 200 200;" xml:space="preserve">
<path d="M28.7,46.6c-5.3,5.3-7.7,12.9-6.5,20.2c4.3,25.9,18,51.5,38.8,72.3c20.7,20.7,46.4,34.5,72.2,38.7c1.2,0.2,2.5,0.3,3.8,0.3
	c6.1,0,12.1-2.5,16.4-6.8l20.8-20.8c2.6-2.6,4-5.9,4-9.6c0-3.6-1.4-7-4-9.6l-22.4-22.4c-2.5-2.6-5.9-4-9.5-4c-3.6,0-7,1.4-9.5,4
	l-17.5,17.5c-9.3-4-17.7-9.7-24.8-16.9c-7.2-7.2-12.9-15.5-16.9-24.9L91,67.3c2.6-2.6,4-5.9,4-9.6c0-3.6-1.4-7-4-9.6L68.6,25.8
	c-2.5-2.6-5.9-4-9.5-4c-3.6,0-7,1.4-9.5,4L28.7,46.6L28.7,46.6z M38.6,56.5L59,36.1l21.6,21.7L57.1,81.3l1.6,4.2
	c9.5,25.9,29.9,46.3,55.8,55.8l4.2,1.6l0.2-0.2l23.4-23.4l21.6,21.7l-20.4,20.4c-2.1,2.1-5.1,3.1-8,2.6c-23-3.8-46-16.2-64.6-34.8
	S39.8,87.5,36,64.5C35.5,61.6,36.5,58.6,38.6,56.5z" fill="currentColor"/>
</svg>
