<?xml version="1.0" standalone="no"?><!DOCTYPE svg PUBLIC "-//W3C//DTD SVG 1.1//EN" "http://www.w3.org/Graphics/SVG/1.1/DTD/svg11.dtd"><svg t="1739512696653" class="icon" viewBox="0 0 1024 1024" version="1.1" xmlns="http://www.w3.org/2000/svg" p-id="52122" xmlns:xlink="http://www.w3.org/1999/xlink" width="200" height="200"><path d="M798.8 97c-79 0-143 64-143 143 0 57.1 33.4 106.3 81.8 129.3l-61.1 120.5c-5.8-0.7-11.7-1.1-17.8-1.1-31.7 0-61 10.3-84.8 27.8l-66.9-70c10.5-19.9 16.5-42.6 16.5-66.7 0-79-64-143-143-143s-143 64-143 143c0 48.1 23.7 90.6 60.1 116.5l-73 144.1c-1.4 0-2.8-0.1-4.3-0.1-79 0-143 64-143 143s64 143 143 143 143-64 143-143c0-54.6-30.6-102-75.6-126.2l69.1-136.4c7.7 1.3 15.6 2 23.7 2 31.6 0 60.8-10.3 84.5-27.6l67 70.1c-10.4 19.9-16.4 42.5-16.4 66.5 0 79 64 143 143 143s143-64 143-143c0-50.1-25.8-94.2-64.8-119.8l65.4-129c77.4-1.9 139.5-65.2 139.5-143C941.8 161.1 877.8 97 798.8 97zM299.2 783.4c0 43.6-35.5 79-79 79-43.6 0-79-35.5-79-79s35.5-79 79-79 79 35.4 79 79z m81.2-324.5c-43.6 0-79-35.5-79-79s35.5-79 79-79 79 35.5 79 79-35.4 79-79 79z m357.3 172.9c0 43.6-35.5 79-79 79s-79-35.5-79-79 35.5-79 79-79 79 35.4 79 79z m61.1-312.7c-43.6 0-79-35.5-79-79s35.5-79 79-79 79 35.5 79 79-35.5 79-79 79z" p-id="52123" fill="currentColor"></path></svg>